<mxfile host="Electron" modified="2023-09-12T02:41:57.739Z" agent="Mozilla/5.0 (Windows NT 10.0; Win64; x64) AppleWebKit/537.36 (KHTML, like Gecko) draw.io/21.6.1 Chrome/112.0.5615.204 Electron/24.6.1 Safari/537.36" etag="Io3iHQRT-KXtDdFLge4v" version="21.6.1" type="device" pages="4">
  <diagram name="new VueRouter" id="4qTRwb0c9f_9QhVzqhDi">
    <mxGraphModel dx="864" dy="516" grid="1" gridSize="10" guides="1" tooltips="1" connect="1" arrows="1" fold="1" page="1" pageScale="1" pageWidth="827" pageHeight="1169" math="0" shadow="0">
      <root>
        <mxCell id="0" />
        <mxCell id="1" parent="0" />
        <mxCell id="dr_7VzNMf6op31j6IOc6-1" value="new VueRouter流程" style="rounded=0;whiteSpace=wrap;html=1;" parent="1" vertex="1">
          <mxGeometry width="120" height="60" as="geometry" />
        </mxCell>
        <mxCell id="-b3FuxnRbgbSXkJrzocm-6" style="edgeStyle=orthogonalEdgeStyle;rounded=0;orthogonalLoop=1;jettySize=auto;html=1;entryX=0.5;entryY=0;entryDx=0;entryDy=0;" parent="1" source="dr_7VzNMf6op31j6IOc6-3" target="-b3FuxnRbgbSXkJrzocm-1" edge="1">
          <mxGeometry relative="1" as="geometry" />
        </mxCell>
        <mxCell id="dr_7VzNMf6op31j6IOc6-3" value="createMatcher" style="swimlane;fontStyle=0;childLayout=stackLayout;horizontal=1;startSize=30;horizontalStack=0;resizeParent=1;resizeParentMax=0;resizeLast=0;collapsible=1;marginBottom=0;whiteSpace=wrap;html=1;" parent="1" vertex="1">
          <mxGeometry x="10" y="80" width="320" height="140" as="geometry" />
        </mxCell>
        <mxCell id="dr_7VzNMf6op31j6IOc6-4" value="入参：routes: Array&amp;lt;RouteConfig&amp;gt;, router: Router" style="text;strokeColor=none;fillColor=none;align=left;verticalAlign=middle;spacingLeft=4;spacingRight=4;overflow=hidden;points=[[0,0.5],[1,0.5]];portConstraint=eastwest;rotatable=0;whiteSpace=wrap;html=1;" parent="dr_7VzNMf6op31j6IOc6-3" vertex="1">
          <mxGeometry y="30" width="320" height="30" as="geometry" />
        </mxCell>
        <mxCell id="dr_7VzNMf6op31j6IOc6-6" value="return: Matcher" style="text;strokeColor=none;fillColor=none;align=left;verticalAlign=middle;spacingLeft=4;spacingRight=4;overflow=hidden;points=[[0,0.5],[1,0.5]];portConstraint=eastwest;rotatable=0;whiteSpace=wrap;html=1;" parent="dr_7VzNMf6op31j6IOc6-3" vertex="1">
          <mxGeometry y="60" width="320" height="30" as="geometry" />
        </mxCell>
        <mxCell id="jevQgvHvJhEZ8h3Y9r2B-1" value="该函数还有一点：将routes转化成闭包内容 pathList, pathMap, nameMap 供给Matcher包括的函数使用（通过createRouteMap实现）" style="text;strokeColor=none;fillColor=none;align=left;verticalAlign=middle;spacingLeft=4;spacingRight=4;overflow=hidden;points=[[0,0.5],[1,0.5]];portConstraint=eastwest;rotatable=0;whiteSpace=wrap;html=1;" parent="dr_7VzNMf6op31j6IOc6-3" vertex="1">
          <mxGeometry y="90" width="320" height="50" as="geometry" />
        </mxCell>
        <mxCell id="jevQgvHvJhEZ8h3Y9r2B-15" style="edgeStyle=orthogonalEdgeStyle;rounded=0;orthogonalLoop=1;jettySize=auto;html=1;entryX=0.5;entryY=0;entryDx=0;entryDy=0;" parent="1" source="jevQgvHvJhEZ8h3Y9r2B-2" target="jevQgvHvJhEZ8h3Y9r2B-11" edge="1">
          <mxGeometry relative="1" as="geometry" />
        </mxCell>
        <mxCell id="jevQgvHvJhEZ8h3Y9r2B-2" value="createRouteMap" style="swimlane;fontStyle=0;childLayout=stackLayout;horizontal=1;startSize=30;horizontalStack=0;resizeParent=1;resizeParentMax=0;resizeLast=0;collapsible=1;marginBottom=0;whiteSpace=wrap;html=1;" parent="1" vertex="1">
          <mxGeometry x="380" y="80" width="366" height="120" as="geometry" />
        </mxCell>
        <mxCell id="jevQgvHvJhEZ8h3Y9r2B-3" value="入参：routes: Array&amp;lt;RouteConfig&amp;gt;, oldPathList?: Array&amp;lt;string&amp;gt;, oldPathMap?: Record&amp;lt;string, RouteRecord&amp;gt;, oldNameMap?: Record&amp;lt;string, RouteRecord&amp;gt;, parentRoute?: RouteRecord" style="text;strokeColor=none;fillColor=none;align=left;verticalAlign=middle;spacingLeft=4;spacingRight=4;overflow=hidden;points=[[0,0.5],[1,0.5]];portConstraint=eastwest;rotatable=0;whiteSpace=wrap;html=1;" parent="jevQgvHvJhEZ8h3Y9r2B-2" vertex="1">
          <mxGeometry y="30" width="366" height="60" as="geometry" />
        </mxCell>
        <mxCell id="jevQgvHvJhEZ8h3Y9r2B-5" value="return pathList, pathMap, nameMap" style="text;strokeColor=none;fillColor=none;align=left;verticalAlign=middle;spacingLeft=4;spacingRight=4;overflow=hidden;points=[[0,0.5],[1,0.5]];portConstraint=eastwest;rotatable=0;whiteSpace=wrap;html=1;" parent="jevQgvHvJhEZ8h3Y9r2B-2" vertex="1">
          <mxGeometry y="90" width="366" height="30" as="geometry" />
        </mxCell>
        <mxCell id="jevQgvHvJhEZ8h3Y9r2B-11" value="addRouteRecord" style="swimlane;fontStyle=0;childLayout=stackLayout;horizontal=1;startSize=30;horizontalStack=0;resizeParent=1;resizeParentMax=0;resizeLast=0;collapsible=1;marginBottom=0;whiteSpace=wrap;html=1;" parent="1" vertex="1">
          <mxGeometry x="373" y="230" width="380" height="170" as="geometry" />
        </mxCell>
        <mxCell id="jevQgvHvJhEZ8h3Y9r2B-12" value="入参：pathList: Array&amp;lt;string&amp;gt;, pathMap: Record&amp;lt;string, RouteRecord&amp;gt;, nameMap: Record&amp;lt;string, RouteRecord&amp;gt;, route: RouteRecord, parent?: RouteRecord, matchAs?: string" style="text;strokeColor=none;fillColor=none;align=left;verticalAlign=middle;spacingLeft=4;spacingRight=4;overflow=hidden;points=[[0,0.5],[1,0.5]];portConstraint=eastwest;rotatable=0;whiteSpace=wrap;html=1;" parent="jevQgvHvJhEZ8h3Y9r2B-11" vertex="1">
          <mxGeometry y="30" width="380" height="110" as="geometry" />
        </mxCell>
        <mxCell id="jevQgvHvJhEZ8h3Y9r2B-13" value="Item 2" style="text;strokeColor=none;fillColor=none;align=left;verticalAlign=middle;spacingLeft=4;spacingRight=4;overflow=hidden;points=[[0,0.5],[1,0.5]];portConstraint=eastwest;rotatable=0;whiteSpace=wrap;html=1;" parent="jevQgvHvJhEZ8h3Y9r2B-11" vertex="1">
          <mxGeometry y="140" width="380" height="30" as="geometry" />
        </mxCell>
        <mxCell id="-b3FuxnRbgbSXkJrzocm-21" style="edgeStyle=orthogonalEdgeStyle;rounded=0;orthogonalLoop=1;jettySize=auto;html=1;entryX=0.5;entryY=0;entryDx=0;entryDy=0;" parent="1" source="-b3FuxnRbgbSXkJrzocm-1" target="-b3FuxnRbgbSXkJrzocm-11" edge="1">
          <mxGeometry relative="1" as="geometry" />
        </mxCell>
        <mxCell id="-b3FuxnRbgbSXkJrzocm-1" value="new History" style="swimlane;fontStyle=0;childLayout=stackLayout;horizontal=1;startSize=30;horizontalStack=0;resizeParent=1;resizeParentMax=0;resizeLast=0;collapsible=1;marginBottom=0;whiteSpace=wrap;html=1;" parent="1" vertex="1">
          <mxGeometry x="20" y="250" width="300" height="90" as="geometry" />
        </mxCell>
        <mxCell id="-b3FuxnRbgbSXkJrzocm-2" value="入参：this：Router, base?: string, fallback?: boolean" style="text;strokeColor=none;fillColor=none;align=left;verticalAlign=middle;spacingLeft=4;spacingRight=4;overflow=hidden;points=[[0,0.5],[1,0.5]];portConstraint=eastwest;rotatable=0;whiteSpace=wrap;html=1;" parent="-b3FuxnRbgbSXkJrzocm-1" vertex="1">
          <mxGeometry y="30" width="300" height="30" as="geometry" />
        </mxCell>
        <mxCell id="-b3FuxnRbgbSXkJrzocm-3" value="return history" style="text;strokeColor=none;fillColor=none;align=left;verticalAlign=middle;spacingLeft=4;spacingRight=4;overflow=hidden;points=[[0,0.5],[1,0.5]];portConstraint=eastwest;rotatable=0;whiteSpace=wrap;html=1;" parent="-b3FuxnRbgbSXkJrzocm-1" vertex="1">
          <mxGeometry y="60" width="300" height="30" as="geometry" />
        </mxCell>
        <mxCell id="-b3FuxnRbgbSXkJrzocm-23" style="edgeStyle=orthogonalEdgeStyle;rounded=0;orthogonalLoop=1;jettySize=auto;html=1;" parent="1" source="-b3FuxnRbgbSXkJrzocm-11" target="-b3FuxnRbgbSXkJrzocm-20" edge="1">
          <mxGeometry relative="1" as="geometry" />
        </mxCell>
        <mxCell id="-b3FuxnRbgbSXkJrzocm-11" value="HashHistory" style="swimlane;fontStyle=0;childLayout=stackLayout;horizontal=1;startSize=30;horizontalStack=0;resizeParent=1;resizeParentMax=0;resizeLast=0;collapsible=1;marginBottom=0;whiteSpace=wrap;html=1;" parent="1" vertex="1">
          <mxGeometry x="20" y="370" width="300" height="210" as="geometry" />
        </mxCell>
        <mxCell id="-b3FuxnRbgbSXkJrzocm-12" value="super(router, base)" style="text;strokeColor=none;fillColor=none;align=left;verticalAlign=middle;spacingLeft=4;spacingRight=4;overflow=hidden;points=[[0,0.5],[1,0.5]];portConstraint=eastwest;rotatable=0;whiteSpace=wrap;html=1;" parent="-b3FuxnRbgbSXkJrzocm-11" vertex="1">
          <mxGeometry y="30" width="300" height="30" as="geometry" />
        </mxCell>
        <mxCell id="-b3FuxnRbgbSXkJrzocm-16" value="BaseHistory" style="swimlane;fontStyle=0;childLayout=stackLayout;horizontal=1;startSize=30;horizontalStack=0;resizeParent=1;resizeParentMax=0;resizeLast=0;collapsible=1;marginBottom=0;whiteSpace=wrap;html=1;" parent="-b3FuxnRbgbSXkJrzocm-11" vertex="1">
          <mxGeometry y="60" width="300" height="120" as="geometry">
            <mxRectangle y="60" width="300" height="30" as="alternateBounds" />
          </mxGeometry>
        </mxCell>
        <mxCell id="-b3FuxnRbgbSXkJrzocm-17" value="router, base, current为一个空Route指向nowhere，pending为false。 ready, readyCbs，readyErrorCbs，errorCbs, listeners初始化" style="text;strokeColor=none;fillColor=none;align=left;verticalAlign=middle;spacingLeft=4;spacingRight=4;overflow=hidden;points=[[0,0.5],[1,0.5]];portConstraint=eastwest;rotatable=0;whiteSpace=wrap;html=1;" parent="-b3FuxnRbgbSXkJrzocm-16" vertex="1">
          <mxGeometry y="30" width="300" height="90" as="geometry" />
        </mxCell>
        <mxCell id="-b3FuxnRbgbSXkJrzocm-15" value="ensureSlash：判断location.href有无#，无则修改" style="text;strokeColor=none;fillColor=none;align=left;verticalAlign=middle;spacingLeft=4;spacingRight=4;overflow=hidden;points=[[0,0.5],[1,0.5]];portConstraint=eastwest;rotatable=0;whiteSpace=wrap;html=1;" parent="-b3FuxnRbgbSXkJrzocm-11" vertex="1">
          <mxGeometry y="180" width="300" height="30" as="geometry" />
        </mxCell>
        <mxCell id="-b3FuxnRbgbSXkJrzocm-20" value="结束" style="shape=parallelogram;perimeter=parallelogramPerimeter;whiteSpace=wrap;html=1;fixedSize=1;" parent="1" vertex="1">
          <mxGeometry x="110" y="630" width="120" height="60" as="geometry" />
        </mxCell>
        <mxCell id="-b3FuxnRbgbSXkJrzocm-30" value="" style="curved=1;endArrow=classic;html=1;rounded=0;" parent="1" target="jevQgvHvJhEZ8h3Y9r2B-2" edge="1">
          <mxGeometry width="50" height="50" relative="1" as="geometry">
            <mxPoint x="330" y="90" as="sourcePoint" />
            <mxPoint x="380" y="40" as="targetPoint" />
            <Array as="points">
              <mxPoint x="380" y="90" />
              <mxPoint x="330" y="40" />
            </Array>
          </mxGeometry>
        </mxCell>
      </root>
    </mxGraphModel>
  </diagram>
  <diagram id="zVwNigkA60MbTv_eaQPq" name="类型">
    <mxGraphModel dx="864" dy="516" grid="1" gridSize="10" guides="1" tooltips="1" connect="1" arrows="1" fold="1" page="1" pageScale="1" pageWidth="827" pageHeight="1169" math="0" shadow="0">
      <root>
        <mxCell id="0" />
        <mxCell id="1" parent="0" />
        <mxCell id="DrnvlQh__OtycYkwPX3l-1" value="types" style="rounded=0;whiteSpace=wrap;html=1;fontColor=#0000FF;" parent="1" vertex="1">
          <mxGeometry x="30" y="20" width="120" height="60" as="geometry" />
        </mxCell>
        <mxCell id="DrnvlQh__OtycYkwPX3l-2" value="&lt;font style=&quot;font-size: 14px;&quot;&gt;RouteConfig&lt;/font&gt;" style="swimlane;fontStyle=0;childLayout=stackLayout;horizontal=1;startSize=30;horizontalStack=0;resizeParent=1;resizeParentMax=0;resizeLast=0;collapsible=1;marginBottom=0;whiteSpace=wrap;html=1;fontColor=#0000FF;" parent="1" vertex="1">
          <mxGeometry x="20" y="110" width="310" height="420" as="geometry" />
        </mxCell>
        <mxCell id="DrnvlQh__OtycYkwPX3l-3" value="path：string" style="text;strokeColor=none;fillColor=none;align=left;verticalAlign=middle;spacingLeft=4;spacingRight=4;overflow=hidden;points=[[0,0.5],[1,0.5]];portConstraint=eastwest;rotatable=0;whiteSpace=wrap;html=1;fontSize=14;fontColor=#0000FF;" parent="DrnvlQh__OtycYkwPX3l-2" vertex="1">
          <mxGeometry y="30" width="310" height="30" as="geometry" />
        </mxCell>
        <mxCell id="DrnvlQh__OtycYkwPX3l-7" value="component?: any" style="text;strokeColor=none;fillColor=none;align=left;verticalAlign=middle;spacingLeft=4;spacingRight=4;overflow=hidden;points=[[0,0.5],[1,0.5]];portConstraint=eastwest;rotatable=0;whiteSpace=wrap;html=1;fontSize=14;fontColor=#0000FF;" parent="DrnvlQh__OtycYkwPX3l-2" vertex="1">
          <mxGeometry y="60" width="310" height="30" as="geometry" />
        </mxCell>
        <mxCell id="DrnvlQh__OtycYkwPX3l-4" value="name?: string" style="text;strokeColor=none;fillColor=none;align=left;verticalAlign=middle;spacingLeft=4;spacingRight=4;overflow=hidden;points=[[0,0.5],[1,0.5]];portConstraint=eastwest;rotatable=0;whiteSpace=wrap;html=1;fontSize=14;fontColor=#0000FF;" parent="DrnvlQh__OtycYkwPX3l-2" vertex="1">
          <mxGeometry y="90" width="310" height="30" as="geometry" />
        </mxCell>
        <mxCell id="DrnvlQh__OtycYkwPX3l-6" value="components?: Record&amp;lt;string, any&amp;gt;" style="text;strokeColor=none;fillColor=none;align=left;verticalAlign=middle;spacingLeft=4;spacingRight=4;overflow=hidden;points=[[0,0.5],[1,0.5]];portConstraint=eastwest;rotatable=0;whiteSpace=wrap;html=1;fontSize=14;fontColor=#0000FF;" parent="DrnvlQh__OtycYkwPX3l-2" vertex="1">
          <mxGeometry y="120" width="310" height="30" as="geometry" />
        </mxCell>
        <mxCell id="DrnvlQh__OtycYkwPX3l-8" value="component?: any" style="text;strokeColor=none;fillColor=none;align=left;verticalAlign=middle;spacingLeft=4;spacingRight=4;overflow=hidden;points=[[0,0.5],[1,0.5]];portConstraint=eastwest;rotatable=0;whiteSpace=wrap;html=1;fontSize=14;fontColor=#0000FF;" parent="DrnvlQh__OtycYkwPX3l-2" vertex="1">
          <mxGeometry y="150" width="310" height="30" as="geometry" />
        </mxCell>
        <mxCell id="DrnvlQh__OtycYkwPX3l-9" value="pathToRegexpOptions?: PathToRegexpOptions" style="text;strokeColor=none;fillColor=none;align=left;verticalAlign=middle;spacingLeft=4;spacingRight=4;overflow=hidden;points=[[0,0.5],[1,0.5]];portConstraint=eastwest;rotatable=0;whiteSpace=wrap;html=1;fontSize=14;fontColor=#0000FF;" parent="DrnvlQh__OtycYkwPX3l-2" vertex="1">
          <mxGeometry y="180" width="310" height="30" as="geometry" />
        </mxCell>
        <mxCell id="DrnvlQh__OtycYkwPX3l-5" value="caseSensitive?: boolean" style="text;strokeColor=none;fillColor=none;align=left;verticalAlign=middle;spacingLeft=4;spacingRight=4;overflow=hidden;points=[[0,0.5],[1,0.5]];portConstraint=eastwest;rotatable=0;whiteSpace=wrap;html=1;fontSize=14;fontColor=#0000FF;" parent="DrnvlQh__OtycYkwPX3l-2" vertex="1">
          <mxGeometry y="210" width="310" height="30" as="geometry" />
        </mxCell>
        <mxCell id="DrnvlQh__OtycYkwPX3l-11" value="alias?: string | Array&amp;lt;string&amp;gt;" style="text;strokeColor=none;fillColor=none;align=left;verticalAlign=middle;spacingLeft=4;spacingRight=4;overflow=hidden;points=[[0,0.5],[1,0.5]];portConstraint=eastwest;rotatable=0;whiteSpace=wrap;html=1;fontSize=14;fontColor=#0000FF;" parent="DrnvlQh__OtycYkwPX3l-2" vertex="1">
          <mxGeometry y="240" width="310" height="30" as="geometry" />
        </mxCell>
        <mxCell id="DrnvlQh__OtycYkwPX3l-10" value="meta?: any" style="text;strokeColor=none;fillColor=none;align=left;verticalAlign=middle;spacingLeft=4;spacingRight=4;overflow=hidden;points=[[0,0.5],[1,0.5]];portConstraint=eastwest;rotatable=0;whiteSpace=wrap;html=1;fontSize=14;fontColor=#0000FF;" parent="DrnvlQh__OtycYkwPX3l-2" vertex="1">
          <mxGeometry y="270" width="310" height="30" as="geometry" />
        </mxCell>
        <mxCell id="DrnvlQh__OtycYkwPX3l-12" value="redirect?: RedirectOption" style="text;strokeColor=none;fillColor=none;align=left;verticalAlign=middle;spacingLeft=4;spacingRight=4;overflow=hidden;points=[[0,0.5],[1,0.5]];portConstraint=eastwest;rotatable=0;whiteSpace=wrap;html=1;fontSize=14;fontColor=#0000FF;" parent="DrnvlQh__OtycYkwPX3l-2" vertex="1">
          <mxGeometry y="300" width="310" height="30" as="geometry" />
        </mxCell>
        <mxCell id="DrnvlQh__OtycYkwPX3l-13" value="beforeEnter?: NavigationGuard" style="text;strokeColor=none;fillColor=none;align=left;verticalAlign=middle;spacingLeft=4;spacingRight=4;overflow=hidden;points=[[0,0.5],[1,0.5]];portConstraint=eastwest;rotatable=0;whiteSpace=wrap;html=1;fontSize=14;fontColor=#0000FF;" parent="DrnvlQh__OtycYkwPX3l-2" vertex="1">
          <mxGeometry y="330" width="310" height="30" as="geometry" />
        </mxCell>
        <mxCell id="DrnvlQh__OtycYkwPX3l-14" value="props?: boolean | Function | Object" style="text;strokeColor=none;fillColor=none;align=left;verticalAlign=middle;spacingLeft=4;spacingRight=4;overflow=hidden;points=[[0,0.5],[1,0.5]];portConstraint=eastwest;rotatable=0;whiteSpace=wrap;html=1;fontSize=14;fontColor=#0000FF;" parent="DrnvlQh__OtycYkwPX3l-2" vertex="1">
          <mxGeometry y="360" width="310" height="30" as="geometry" />
        </mxCell>
        <mxCell id="DrnvlQh__OtycYkwPX3l-15" value="children?: Array&amp;lt;RouteConfig&amp;gt;" style="text;strokeColor=none;fillColor=none;align=left;verticalAlign=middle;spacingLeft=4;spacingRight=4;overflow=hidden;points=[[0,0.5],[1,0.5]];portConstraint=eastwest;rotatable=0;whiteSpace=wrap;html=1;fontSize=14;fontColor=#0000FF;" parent="DrnvlQh__OtycYkwPX3l-2" vertex="1">
          <mxGeometry y="390" width="310" height="30" as="geometry" />
        </mxCell>
        <mxCell id="Ha602vdqCIvBL1ev3NvK-5" value="&lt;span style=&quot;font-size: 14px;&quot;&gt;PathToRegexpOptions&lt;/span&gt;" style="swimlane;fontStyle=0;childLayout=stackLayout;horizontal=1;startSize=30;horizontalStack=0;resizeParent=1;resizeParentMax=0;resizeLast=0;collapsible=1;marginBottom=0;whiteSpace=wrap;html=1;fontColor=#0000FF;" parent="1" vertex="1" collapsed="1">
          <mxGeometry x="350" y="110" width="180" height="30" as="geometry">
            <mxRectangle x="350" y="110" width="220" height="120" as="alternateBounds" />
          </mxGeometry>
        </mxCell>
        <mxCell id="Ha602vdqCIvBL1ev3NvK-7" value="sensitive?: boolean" style="text;strokeColor=none;fillColor=none;align=left;verticalAlign=middle;spacingLeft=4;spacingRight=4;overflow=hidden;points=[[0,0.5],[1,0.5]];portConstraint=eastwest;rotatable=0;whiteSpace=wrap;html=1;fontSize=14;fontColor=#0000FF;" parent="Ha602vdqCIvBL1ev3NvK-5" vertex="1">
          <mxGeometry y="30" width="220" height="30" as="geometry" />
        </mxCell>
        <mxCell id="Ha602vdqCIvBL1ev3NvK-10" value="strict?: boolean" style="text;strokeColor=none;fillColor=none;align=left;verticalAlign=middle;spacingLeft=4;spacingRight=4;overflow=hidden;points=[[0,0.5],[1,0.5]];portConstraint=eastwest;rotatable=0;whiteSpace=wrap;html=1;fontSize=14;fontColor=#0000FF;" parent="Ha602vdqCIvBL1ev3NvK-5" vertex="1">
          <mxGeometry y="60" width="220" height="30" as="geometry" />
        </mxCell>
        <mxCell id="Ha602vdqCIvBL1ev3NvK-12" value="end?: boolean" style="text;strokeColor=none;fillColor=none;align=left;verticalAlign=middle;spacingLeft=4;spacingRight=4;overflow=hidden;points=[[0,0.5],[1,0.5]];portConstraint=eastwest;rotatable=0;whiteSpace=wrap;html=1;fontSize=14;fontColor=#0000FF;" parent="Ha602vdqCIvBL1ev3NvK-5" vertex="1">
          <mxGeometry y="90" width="220" height="30" as="geometry" />
        </mxCell>
        <mxCell id="Ha602vdqCIvBL1ev3NvK-19" value="&lt;span style=&quot;font-size: 14px;&quot;&gt;RedirectOption&lt;/span&gt;" style="swimlane;fontStyle=0;childLayout=stackLayout;horizontal=1;startSize=30;horizontalStack=0;resizeParent=1;resizeParentMax=0;resizeLast=0;collapsible=1;marginBottom=0;whiteSpace=wrap;html=1;fontColor=#0000FF;" parent="1" vertex="1">
          <mxGeometry x="590" y="110" width="220" height="90" as="geometry">
            <mxRectangle x="590" y="110" width="130" height="30" as="alternateBounds" />
          </mxGeometry>
        </mxCell>
        <mxCell id="Ha602vdqCIvBL1ev3NvK-29" value="&lt;span style=&quot;font-size: 14px;&quot;&gt;RawLocation |&lt;/span&gt;" style="swimlane;fontStyle=0;childLayout=stackLayout;horizontal=1;startSize=30;horizontalStack=0;resizeParent=1;resizeParentMax=0;resizeLast=0;collapsible=1;marginBottom=0;whiteSpace=wrap;html=1;fontColor=#0000FF;" parent="Ha602vdqCIvBL1ev3NvK-19" vertex="1" collapsed="1">
          <mxGeometry y="30" width="220" height="30" as="geometry">
            <mxRectangle y="30" width="220" height="300" as="alternateBounds" />
          </mxGeometry>
        </mxCell>
        <mxCell id="Ha602vdqCIvBL1ev3NvK-30" value="string |" style="text;strokeColor=none;fillColor=none;align=left;verticalAlign=middle;spacingLeft=4;spacingRight=4;overflow=hidden;points=[[0,0.5],[1,0.5]];portConstraint=eastwest;rotatable=0;whiteSpace=wrap;html=1;fontSize=14;fontColor=#0000FF;" parent="Ha602vdqCIvBL1ev3NvK-29" vertex="1">
          <mxGeometry y="30" width="220" height="30" as="geometry" />
        </mxCell>
        <mxCell id="Ha602vdqCIvBL1ev3NvK-31" value="&lt;span style=&quot;font-size: 14px;&quot;&gt;Location&lt;/span&gt;" style="swimlane;fontStyle=0;childLayout=stackLayout;horizontal=1;startSize=30;horizontalStack=0;resizeParent=1;resizeParentMax=0;resizeLast=0;collapsible=1;marginBottom=0;whiteSpace=wrap;html=1;fontColor=#0000FF;" parent="Ha602vdqCIvBL1ev3NvK-29" vertex="1">
          <mxGeometry y="60" width="220" height="240" as="geometry" />
        </mxCell>
        <mxCell id="Ha602vdqCIvBL1ev3NvK-32" value="name?: string" style="text;strokeColor=none;fillColor=none;align=left;verticalAlign=middle;spacingLeft=4;spacingRight=4;overflow=hidden;points=[[0,0.5],[1,0.5]];portConstraint=eastwest;rotatable=0;whiteSpace=wrap;html=1;fontSize=14;fontColor=#0000FF;" parent="Ha602vdqCIvBL1ev3NvK-31" vertex="1">
          <mxGeometry y="30" width="220" height="30" as="geometry" />
        </mxCell>
        <mxCell id="Ha602vdqCIvBL1ev3NvK-33" value="path?: string" style="text;strokeColor=none;fillColor=none;align=left;verticalAlign=middle;spacingLeft=4;spacingRight=4;overflow=hidden;points=[[0,0.5],[1,0.5]];portConstraint=eastwest;rotatable=0;whiteSpace=wrap;html=1;fontSize=14;fontColor=#0000FF;" parent="Ha602vdqCIvBL1ev3NvK-31" vertex="1">
          <mxGeometry y="60" width="220" height="30" as="geometry" />
        </mxCell>
        <mxCell id="Ha602vdqCIvBL1ev3NvK-34" value="query?: Record&amp;lt;string, string&amp;gt;" style="text;strokeColor=none;fillColor=none;align=left;verticalAlign=middle;spacingLeft=4;spacingRight=4;overflow=hidden;points=[[0,0.5],[1,0.5]];portConstraint=eastwest;rotatable=0;whiteSpace=wrap;html=1;fontSize=14;fontColor=#0000FF;" parent="Ha602vdqCIvBL1ev3NvK-31" vertex="1">
          <mxGeometry y="90" width="220" height="30" as="geometry" />
        </mxCell>
        <mxCell id="Ha602vdqCIvBL1ev3NvK-35" value="params?: Record&amp;lt;string, string&amp;gt;" style="text;strokeColor=none;fillColor=none;align=left;verticalAlign=middle;spacingLeft=4;spacingRight=4;overflow=hidden;points=[[0,0.5],[1,0.5]];portConstraint=eastwest;rotatable=0;whiteSpace=wrap;html=1;fontSize=14;fontColor=#0000FF;" parent="Ha602vdqCIvBL1ev3NvK-31" vertex="1">
          <mxGeometry y="120" width="220" height="30" as="geometry" />
        </mxCell>
        <mxCell id="Ha602vdqCIvBL1ev3NvK-38" value="&lt;font color=&quot;#0000ff&quot;&gt;&lt;span style=&quot;font-size: 14px;&quot;&gt;hash?: string&lt;/span&gt;&lt;/font&gt;" style="text;whiteSpace=wrap;html=1;" parent="Ha602vdqCIvBL1ev3NvK-31" vertex="1">
          <mxGeometry y="150" width="220" height="30" as="geometry" />
        </mxCell>
        <mxCell id="Ha602vdqCIvBL1ev3NvK-36" value="&lt;font color=&quot;#0000ff&quot;&gt;&lt;span style=&quot;font-size: 14px;&quot;&gt;_normalized?: boolean&lt;/span&gt;&lt;/font&gt;" style="text;whiteSpace=wrap;html=1;" parent="Ha602vdqCIvBL1ev3NvK-31" vertex="1">
          <mxGeometry y="180" width="220" height="30" as="geometry" />
        </mxCell>
        <mxCell id="Ha602vdqCIvBL1ev3NvK-37" value="&lt;font color=&quot;#0000ff&quot;&gt;&lt;span style=&quot;font-size: 14px;&quot;&gt;append?: boolean&lt;/span&gt;&lt;/font&gt;" style="text;whiteSpace=wrap;html=1;" parent="Ha602vdqCIvBL1ev3NvK-31" vertex="1">
          <mxGeometry y="210" width="220" height="30" as="geometry" />
        </mxCell>
        <mxCell id="Ha602vdqCIvBL1ev3NvK-28" value="&lt;span style=&quot;font-size: 14px;&quot;&gt;（to: Route) =&amp;gt; RawLocation&lt;/span&gt;" style="swimlane;fontStyle=0;childLayout=stackLayout;horizontal=1;startSize=30;horizontalStack=0;resizeParent=1;resizeParentMax=0;resizeLast=0;collapsible=1;marginBottom=0;whiteSpace=wrap;html=1;fontColor=#0000FF;" parent="Ha602vdqCIvBL1ev3NvK-19" vertex="1" collapsed="1">
          <mxGeometry y="60" width="220" height="30" as="geometry">
            <mxRectangle y="60" width="220" height="30" as="alternateBounds" />
          </mxGeometry>
        </mxCell>
        <mxCell id="Ha602vdqCIvBL1ev3NvK-43" value="&lt;span style=&quot;font-size: 14px;&quot;&gt;Route&lt;/span&gt;" style="swimlane;fontStyle=0;childLayout=stackLayout;horizontal=1;startSize=30;horizontalStack=0;resizeParent=1;resizeParentMax=0;resizeLast=0;collapsible=1;marginBottom=0;whiteSpace=wrap;html=1;fontColor=#0000FF;" parent="1" vertex="1">
          <mxGeometry x="340" y="230" width="220" height="300" as="geometry">
            <mxRectangle x="350" y="220" width="180" height="30" as="alternateBounds" />
          </mxGeometry>
        </mxCell>
        <mxCell id="Ha602vdqCIvBL1ev3NvK-44" value="path: string" style="text;strokeColor=none;fillColor=none;align=left;verticalAlign=middle;spacingLeft=4;spacingRight=4;overflow=hidden;points=[[0,0.5],[1,0.5]];portConstraint=eastwest;rotatable=0;whiteSpace=wrap;html=1;fontSize=14;fontColor=#0000FF;" parent="Ha602vdqCIvBL1ev3NvK-43" vertex="1">
          <mxGeometry y="30" width="220" height="30" as="geometry" />
        </mxCell>
        <mxCell id="Ha602vdqCIvBL1ev3NvK-45" value="hash: string" style="text;strokeColor=none;fillColor=none;align=left;verticalAlign=middle;spacingLeft=4;spacingRight=4;overflow=hidden;points=[[0,0.5],[1,0.5]];portConstraint=eastwest;rotatable=0;whiteSpace=wrap;html=1;fontSize=14;fontColor=#0000FF;" parent="Ha602vdqCIvBL1ev3NvK-43" vertex="1">
          <mxGeometry y="60" width="220" height="30" as="geometry" />
        </mxCell>
        <mxCell id="Ha602vdqCIvBL1ev3NvK-46" value="query: Record&amp;lt;string, string&amp;gt;" style="text;strokeColor=none;fillColor=none;align=left;verticalAlign=middle;spacingLeft=4;spacingRight=4;overflow=hidden;points=[[0,0.5],[1,0.5]];portConstraint=eastwest;rotatable=0;whiteSpace=wrap;html=1;fontSize=14;fontColor=#0000FF;" parent="Ha602vdqCIvBL1ev3NvK-43" vertex="1">
          <mxGeometry y="90" width="220" height="30" as="geometry" />
        </mxCell>
        <mxCell id="Ha602vdqCIvBL1ev3NvK-48" value="params: Record&amp;lt;string, string&amp;gt;" style="text;strokeColor=none;fillColor=none;align=left;verticalAlign=middle;spacingLeft=4;spacingRight=4;overflow=hidden;points=[[0,0.5],[1,0.5]];portConstraint=eastwest;rotatable=0;whiteSpace=wrap;html=1;fontSize=14;fontColor=#0000FF;" parent="Ha602vdqCIvBL1ev3NvK-43" vertex="1">
          <mxGeometry y="120" width="220" height="30" as="geometry" />
        </mxCell>
        <mxCell id="Ha602vdqCIvBL1ev3NvK-49" value="name?: string | null" style="text;strokeColor=none;fillColor=none;align=left;verticalAlign=middle;spacingLeft=4;spacingRight=4;overflow=hidden;points=[[0,0.5],[1,0.5]];portConstraint=eastwest;rotatable=0;whiteSpace=wrap;html=1;fontSize=14;fontColor=#0000FF;" parent="Ha602vdqCIvBL1ev3NvK-43" vertex="1">
          <mxGeometry y="150" width="220" height="30" as="geometry" />
        </mxCell>
        <mxCell id="Ha602vdqCIvBL1ev3NvK-50" value="meta?: any" style="text;strokeColor=none;fillColor=none;align=left;verticalAlign=middle;spacingLeft=4;spacingRight=4;overflow=hidden;points=[[0,0.5],[1,0.5]];portConstraint=eastwest;rotatable=0;whiteSpace=wrap;html=1;fontSize=14;fontColor=#0000FF;" parent="Ha602vdqCIvBL1ev3NvK-43" vertex="1">
          <mxGeometry y="180" width="220" height="30" as="geometry" />
        </mxCell>
        <mxCell id="Ha602vdqCIvBL1ev3NvK-51" value="fullPath: string" style="text;strokeColor=none;fillColor=none;align=left;verticalAlign=middle;spacingLeft=4;spacingRight=4;overflow=hidden;points=[[0,0.5],[1,0.5]];portConstraint=eastwest;rotatable=0;whiteSpace=wrap;html=1;fontSize=14;fontColor=#0000FF;" parent="Ha602vdqCIvBL1ev3NvK-43" vertex="1">
          <mxGeometry y="210" width="220" height="30" as="geometry" />
        </mxCell>
        <mxCell id="Ha602vdqCIvBL1ev3NvK-52" value="matched: Array&amp;lt;RouteRecord&amp;gt;" style="text;strokeColor=none;fillColor=none;align=left;verticalAlign=middle;spacingLeft=4;spacingRight=4;overflow=hidden;points=[[0,0.5],[1,0.5]];portConstraint=eastwest;rotatable=0;whiteSpace=wrap;html=1;fontSize=14;fontColor=#0000FF;" parent="Ha602vdqCIvBL1ev3NvK-43" vertex="1">
          <mxGeometry y="240" width="220" height="30" as="geometry" />
        </mxCell>
        <mxCell id="Ha602vdqCIvBL1ev3NvK-53" value="redirectedFrom?: string" style="text;strokeColor=none;fillColor=none;align=left;verticalAlign=middle;spacingLeft=4;spacingRight=4;overflow=hidden;points=[[0,0.5],[1,0.5]];portConstraint=eastwest;rotatable=0;whiteSpace=wrap;html=1;fontSize=14;fontColor=#0000FF;" parent="Ha602vdqCIvBL1ev3NvK-43" vertex="1">
          <mxGeometry y="270" width="220" height="30" as="geometry" />
        </mxCell>
        <mxCell id="Ha602vdqCIvBL1ev3NvK-54" value="&lt;span style=&quot;font-size: 14px;&quot;&gt;RouteRecord&lt;/span&gt;" style="swimlane;fontStyle=0;childLayout=stackLayout;horizontal=1;startSize=30;horizontalStack=0;resizeParent=1;resizeParentMax=0;resizeLast=0;collapsible=1;marginBottom=0;whiteSpace=wrap;html=1;fontColor=#0000FF;" parent="1" vertex="1">
          <mxGeometry x="20" y="550" width="310" height="480" as="geometry">
            <mxRectangle x="350" y="220" width="180" height="30" as="alternateBounds" />
          </mxGeometry>
        </mxCell>
        <mxCell id="Ha602vdqCIvBL1ev3NvK-55" value="path: string" style="text;strokeColor=none;fillColor=none;align=left;verticalAlign=middle;spacingLeft=4;spacingRight=4;overflow=hidden;points=[[0,0.5],[1,0.5]];portConstraint=eastwest;rotatable=0;whiteSpace=wrap;html=1;fontSize=14;fontColor=#0000FF;" parent="Ha602vdqCIvBL1ev3NvK-54" vertex="1">
          <mxGeometry y="30" width="310" height="30" as="geometry" />
        </mxCell>
        <mxCell id="Ha602vdqCIvBL1ev3NvK-64" value="name?: string" style="text;strokeColor=none;fillColor=none;align=left;verticalAlign=middle;spacingLeft=4;spacingRight=4;overflow=hidden;points=[[0,0.5],[1,0.5]];portConstraint=eastwest;rotatable=0;whiteSpace=wrap;html=1;fontSize=14;fontColor=#0000FF;" parent="Ha602vdqCIvBL1ev3NvK-54" vertex="1">
          <mxGeometry y="60" width="310" height="30" as="geometry" />
        </mxCell>
        <mxCell id="Ha602vdqCIvBL1ev3NvK-65" value="meta: any" style="text;strokeColor=none;fillColor=none;align=left;verticalAlign=middle;spacingLeft=4;spacingRight=4;overflow=hidden;points=[[0,0.5],[1,0.5]];portConstraint=eastwest;rotatable=0;whiteSpace=wrap;html=1;fontSize=14;fontColor=#0000FF;" parent="Ha602vdqCIvBL1ev3NvK-54" vertex="1">
          <mxGeometry y="90" width="310" height="30" as="geometry" />
        </mxCell>
        <mxCell id="Ha602vdqCIvBL1ev3NvK-66" value="parent?: RouteRecord" style="text;strokeColor=none;fillColor=none;align=left;verticalAlign=middle;spacingLeft=4;spacingRight=4;overflow=hidden;points=[[0,0.5],[1,0.5]];portConstraint=eastwest;rotatable=0;whiteSpace=wrap;html=1;fontSize=14;fontColor=#0000FF;" parent="Ha602vdqCIvBL1ev3NvK-54" vertex="1">
          <mxGeometry y="120" width="310" height="30" as="geometry" />
        </mxCell>
        <mxCell id="Ha602vdqCIvBL1ev3NvK-67" value="matchAs?: string" style="text;strokeColor=none;fillColor=none;align=left;verticalAlign=middle;spacingLeft=4;spacingRight=4;overflow=hidden;points=[[0,0.5],[1,0.5]];portConstraint=eastwest;rotatable=0;whiteSpace=wrap;html=1;fontSize=14;fontColor=#0000FF;" parent="Ha602vdqCIvBL1ev3NvK-54" vertex="1">
          <mxGeometry y="150" width="310" height="30" as="geometry" />
        </mxCell>
        <mxCell id="Ha602vdqCIvBL1ev3NvK-68" value="redirect?: RedirectOption" style="text;strokeColor=none;fillColor=none;align=left;verticalAlign=middle;spacingLeft=4;spacingRight=4;overflow=hidden;points=[[0,0.5],[1,0.5]];portConstraint=eastwest;rotatable=0;whiteSpace=wrap;html=1;fontSize=14;fontColor=#0000FF;" parent="Ha602vdqCIvBL1ev3NvK-54" vertex="1">
          <mxGeometry y="180" width="310" height="30" as="geometry" />
        </mxCell>
        <mxCell id="Ha602vdqCIvBL1ev3NvK-69" value="beforeEnter?: NavigationGuard" style="text;strokeColor=none;fillColor=none;align=left;verticalAlign=middle;spacingLeft=4;spacingRight=4;overflow=hidden;points=[[0,0.5],[1,0.5]];portConstraint=eastwest;rotatable=0;whiteSpace=wrap;html=1;fontSize=14;fontColor=#0000FF;" parent="Ha602vdqCIvBL1ev3NvK-54" vertex="1">
          <mxGeometry y="210" width="310" height="30" as="geometry" />
        </mxCell>
        <mxCell id="Ha602vdqCIvBL1ev3NvK-70" value="path: string" style="text;strokeColor=none;fillColor=none;align=left;verticalAlign=middle;spacingLeft=4;spacingRight=4;overflow=hidden;points=[[0,0.5],[1,0.5]];portConstraint=eastwest;rotatable=0;whiteSpace=wrap;html=1;fontSize=14;fontColor=#0000FF;" parent="Ha602vdqCIvBL1ev3NvK-54" vertex="1">
          <mxGeometry y="240" width="310" height="30" as="geometry" />
        </mxCell>
        <mxCell id="Ha602vdqCIvBL1ev3NvK-71" value="regex: RouteRegExp" style="text;strokeColor=none;fillColor=none;align=left;verticalAlign=middle;spacingLeft=4;spacingRight=4;overflow=hidden;points=[[0,0.5],[1,0.5]];portConstraint=eastwest;rotatable=0;whiteSpace=wrap;html=1;fontSize=14;fontColor=#0000FF;" parent="Ha602vdqCIvBL1ev3NvK-54" vertex="1">
          <mxGeometry y="270" width="310" height="30" as="geometry" />
        </mxCell>
        <mxCell id="Ha602vdqCIvBL1ev3NvK-72" value="components: Record&amp;lt;string, any&amp;gt;" style="text;strokeColor=none;fillColor=none;align=left;verticalAlign=middle;spacingLeft=4;spacingRight=4;overflow=hidden;points=[[0,0.5],[1,0.5]];portConstraint=eastwest;rotatable=0;whiteSpace=wrap;html=1;fontSize=14;fontColor=#0000FF;" parent="Ha602vdqCIvBL1ev3NvK-54" vertex="1">
          <mxGeometry y="300" width="310" height="30" as="geometry" />
        </mxCell>
        <mxCell id="Ha602vdqCIvBL1ev3NvK-73" value="instances: Record&amp;lt;string, any&amp;gt;" style="text;strokeColor=none;fillColor=none;align=left;verticalAlign=middle;spacingLeft=4;spacingRight=4;overflow=hidden;points=[[0,0.5],[1,0.5]];portConstraint=eastwest;rotatable=0;whiteSpace=wrap;html=1;fontSize=14;fontColor=#0000FF;" parent="Ha602vdqCIvBL1ev3NvK-54" vertex="1">
          <mxGeometry y="330" width="310" height="30" as="geometry" />
        </mxCell>
        <mxCell id="Ha602vdqCIvBL1ev3NvK-74" value="enteredCbs: Record&amp;lt;string, Array&amp;lt;Function&amp;gt;&amp;gt;" style="text;strokeColor=none;fillColor=none;align=left;verticalAlign=middle;spacingLeft=4;spacingRight=4;overflow=hidden;points=[[0,0.5],[1,0.5]];portConstraint=eastwest;rotatable=0;whiteSpace=wrap;html=1;fontSize=14;fontColor=#0000FF;" parent="Ha602vdqCIvBL1ev3NvK-54" vertex="1">
          <mxGeometry y="360" width="310" height="30" as="geometry" />
        </mxCell>
        <mxCell id="Ha602vdqCIvBL1ev3NvK-75" value="alias: Array&amp;lt;string&amp;gt;" style="text;strokeColor=none;fillColor=none;align=left;verticalAlign=middle;spacingLeft=4;spacingRight=4;overflow=hidden;points=[[0,0.5],[1,0.5]];portConstraint=eastwest;rotatable=0;whiteSpace=wrap;html=1;fontSize=14;fontColor=#0000FF;" parent="Ha602vdqCIvBL1ev3NvK-54" vertex="1">
          <mxGeometry y="390" width="310" height="30" as="geometry" />
        </mxCell>
        <mxCell id="Ha602vdqCIvBL1ev3NvK-76" value="props: boolean | Object | Function | Record&amp;lt;string, boolean | Object | Function&amp;gt;" style="text;strokeColor=none;fillColor=none;align=left;verticalAlign=middle;spacingLeft=4;spacingRight=4;overflow=hidden;points=[[0,0.5],[1,0.5]];portConstraint=eastwest;rotatable=0;whiteSpace=wrap;html=1;fontSize=14;fontColor=#0000FF;" parent="Ha602vdqCIvBL1ev3NvK-54" vertex="1">
          <mxGeometry y="420" width="310" height="60" as="geometry" />
        </mxCell>
      </root>
    </mxGraphModel>
  </diagram>
  <diagram id="QH2GuK60SVCtN_-0sxeS" name="官方文档">
    <mxGraphModel dx="864" dy="2854" grid="1" gridSize="10" guides="1" tooltips="1" connect="1" arrows="1" fold="1" page="1" pageScale="1" pageWidth="827" pageHeight="1169" math="0" shadow="0">
      <root>
        <mxCell id="0" />
        <mxCell id="1" parent="0" />
        <mxCell id="Fx9gRpW5yjyy8nUvwHcP-1" value="&lt;span style=&quot;color: rgb(44, 62, 80); font-family: -apple-system, BlinkMacSystemFont, &amp;quot;Segoe UI&amp;quot;, Roboto, Oxygen, Ubuntu, Cantarell, &amp;quot;Fira Sans&amp;quot;, &amp;quot;Droid Sans&amp;quot;, &amp;quot;Helvetica Neue&amp;quot;, sans-serif; font-style: normal; font-variant-ligatures: normal; font-variant-caps: normal; letter-spacing: normal; orphans: 2; text-align: start; text-indent: 0px; text-transform: none; widows: 2; word-spacing: 0px; -webkit-text-stroke-width: 0px; background-color: rgb(255, 255, 255); text-decoration-thickness: initial; text-decoration-style: initial; text-decoration-color: initial; float: none; display: inline !important;&quot;&gt;&lt;b style=&quot;&quot;&gt;&lt;font style=&quot;font-size: 18px;&quot;&gt;动态路由匹配&lt;br&gt;&lt;/font&gt;&lt;/b&gt;&lt;br&gt;&lt;span style=&quot;font-size: 16px;&quot;&gt;当使用路由参数时，例如从&lt;/span&gt;&lt;span style=&quot;font-size: 16px; font-weight: 400;&quot;&gt;&amp;nbsp;&lt;/span&gt;&lt;/span&gt;&lt;code style=&quot;font-family: source-code-pro, Menlo, Monaco, Consolas, &amp;quot;Courier New&amp;quot;, monospace; color: rgb(71, 101, 130); padding: 0.25rem 0.5rem; margin: 0px; font-size: 0.85em; background-color: rgba(27, 31, 35, 0.05); border-radius: 3px; font-style: normal; font-variant-ligatures: normal; font-variant-caps: normal; font-weight: 400; letter-spacing: normal; orphans: 2; text-align: start; text-indent: 0px; text-transform: none; widows: 2; word-spacing: 0px; -webkit-text-stroke-width: 0px; text-decoration-thickness: initial; text-decoration-style: initial; text-decoration-color: initial;&quot;&gt;/user/foo&lt;/code&gt;&lt;span style=&quot;color: rgb(44, 62, 80); font-family: -apple-system, BlinkMacSystemFont, &amp;quot;Segoe UI&amp;quot;, Roboto, Oxygen, Ubuntu, Cantarell, &amp;quot;Fira Sans&amp;quot;, &amp;quot;Droid Sans&amp;quot;, &amp;quot;Helvetica Neue&amp;quot;, sans-serif; font-size: 16px; font-style: normal; font-variant-ligatures: normal; font-variant-caps: normal; font-weight: 400; letter-spacing: normal; orphans: 2; text-align: start; text-indent: 0px; text-transform: none; widows: 2; word-spacing: 0px; -webkit-text-stroke-width: 0px; background-color: rgb(255, 255, 255); text-decoration-thickness: initial; text-decoration-style: initial; text-decoration-color: initial; float: none; display: inline !important;&quot;&gt;&lt;span&gt;&amp;nbsp;&lt;/span&gt;导航到&lt;span&gt;&amp;nbsp;&lt;/span&gt;&lt;/span&gt;&lt;code style=&quot;font-family: source-code-pro, Menlo, Monaco, Consolas, &amp;quot;Courier New&amp;quot;, monospace; color: rgb(71, 101, 130); padding: 0.25rem 0.5rem; margin: 0px; font-size: 0.85em; background-color: rgba(27, 31, 35, 0.05); border-radius: 3px; font-style: normal; font-variant-ligatures: normal; font-variant-caps: normal; font-weight: 400; letter-spacing: normal; orphans: 2; text-align: start; text-indent: 0px; text-transform: none; widows: 2; word-spacing: 0px; -webkit-text-stroke-width: 0px; text-decoration-thickness: initial; text-decoration-style: initial; text-decoration-color: initial;&quot;&gt;/user/bar&lt;/code&gt;&lt;span style=&quot;color: rgb(44, 62, 80); font-family: -apple-system, BlinkMacSystemFont, &amp;quot;Segoe UI&amp;quot;, Roboto, Oxygen, Ubuntu, Cantarell, &amp;quot;Fira Sans&amp;quot;, &amp;quot;Droid Sans&amp;quot;, &amp;quot;Helvetica Neue&amp;quot;, sans-serif; font-size: 16px; font-style: normal; font-variant-ligatures: normal; font-variant-caps: normal; font-weight: 400; letter-spacing: normal; orphans: 2; text-align: start; text-indent: 0px; text-transform: none; widows: 2; word-spacing: 0px; -webkit-text-stroke-width: 0px; background-color: rgb(255, 255, 255); text-decoration-thickness: initial; text-decoration-style: initial; text-decoration-color: initial; float: none; display: inline !important;&quot;&gt;，&lt;/span&gt;&lt;strong style=&quot;font-weight: 600; color: rgb(44, 62, 80); font-family: -apple-system, BlinkMacSystemFont, &amp;quot;Segoe UI&amp;quot;, Roboto, Oxygen, Ubuntu, Cantarell, &amp;quot;Fira Sans&amp;quot;, &amp;quot;Droid Sans&amp;quot;, &amp;quot;Helvetica Neue&amp;quot;, sans-serif; font-size: 16px; font-style: normal; font-variant-ligatures: normal; font-variant-caps: normal; letter-spacing: normal; orphans: 2; text-align: start; text-indent: 0px; text-transform: none; widows: 2; word-spacing: 0px; -webkit-text-stroke-width: 0px; background-color: rgb(255, 255, 255); text-decoration-thickness: initial; text-decoration-style: initial; text-decoration-color: initial;&quot;&gt;原来的组件实例会被复用&lt;/strong&gt;&lt;span style=&quot;color: rgb(44, 62, 80); font-family: -apple-system, BlinkMacSystemFont, &amp;quot;Segoe UI&amp;quot;, Roboto, Oxygen, Ubuntu, Cantarell, &amp;quot;Fira Sans&amp;quot;, &amp;quot;Droid Sans&amp;quot;, &amp;quot;Helvetica Neue&amp;quot;, sans-serif; font-size: 16px; font-style: normal; font-variant-ligatures: normal; font-variant-caps: normal; font-weight: 400; letter-spacing: normal; orphans: 2; text-align: start; text-indent: 0px; text-transform: none; widows: 2; word-spacing: 0px; -webkit-text-stroke-width: 0px; background-color: rgb(255, 255, 255); text-decoration-thickness: initial; text-decoration-style: initial; text-decoration-color: initial; float: none; display: inline !important;&quot;&gt;。因为两个路由都渲染同个组件，比起销毁再创建，复用则显得更加高效。&lt;/span&gt;&lt;strong style=&quot;font-weight: 600; color: rgb(44, 62, 80); font-family: -apple-system, BlinkMacSystemFont, &amp;quot;Segoe UI&amp;quot;, Roboto, Oxygen, Ubuntu, Cantarell, &amp;quot;Fira Sans&amp;quot;, &amp;quot;Droid Sans&amp;quot;, &amp;quot;Helvetica Neue&amp;quot;, sans-serif; font-size: 16px; font-style: normal; font-variant-ligatures: normal; font-variant-caps: normal; letter-spacing: normal; orphans: 2; text-align: start; text-indent: 0px; text-transform: none; widows: 2; word-spacing: 0px; -webkit-text-stroke-width: 0px; background-color: rgb(255, 255, 255); text-decoration-thickness: initial; text-decoration-style: initial; text-decoration-color: initial;&quot;&gt;不过，这也意味着组件的生命周期钩子不会再被调用&lt;/strong&gt;&lt;span style=&quot;color: rgb(44, 62, 80); font-family: -apple-system, BlinkMacSystemFont, &amp;quot;Segoe UI&amp;quot;, Roboto, Oxygen, Ubuntu, Cantarell, &amp;quot;Fira Sans&amp;quot;, &amp;quot;Droid Sans&amp;quot;, &amp;quot;Helvetica Neue&amp;quot;, sans-serif; font-size: 16px; font-style: normal; font-variant-ligatures: normal; font-variant-caps: normal; font-weight: 400; letter-spacing: normal; orphans: 2; text-align: start; text-indent: 0px; text-transform: none; widows: 2; word-spacing: 0px; -webkit-text-stroke-width: 0px; background-color: rgb(255, 255, 255); text-decoration-thickness: initial; text-decoration-style: initial; text-decoration-color: initial; float: none; display: inline !important;&quot;&gt;。&lt;/span&gt;" style="text;whiteSpace=wrap;html=1;" parent="1" vertex="1">
          <mxGeometry x="30" y="-2310" width="560" height="80" as="geometry" />
        </mxCell>
        <mxCell id="BStEm_FRYmkBV9ERgJJY-1" value="&lt;span style=&quot;color: rgb(44, 62, 80); font-family: -apple-system, BlinkMacSystemFont, &amp;quot;Segoe UI&amp;quot;, Roboto, Oxygen, Ubuntu, Cantarell, &amp;quot;Fira Sans&amp;quot;, &amp;quot;Droid Sans&amp;quot;, &amp;quot;Helvetica Neue&amp;quot;, sans-serif; font-size: 16px; font-style: normal; font-variant-ligatures: normal; font-variant-caps: normal; font-weight: 400; letter-spacing: normal; orphans: 2; text-align: start; text-indent: 0px; text-transform: none; widows: 2; word-spacing: 0px; -webkit-text-stroke-width: 0px; background-color: rgb(255, 255, 255); text-decoration-thickness: initial; text-decoration-style: initial; text-decoration-color: initial; float: none; display: inline !important;&quot;&gt;复用组件时，想对路由参数的变化作出响应的话，你可以简单地 watch (监测变化)&lt;span&gt;&amp;nbsp;&lt;/span&gt;&lt;/span&gt;&lt;code style=&quot;font-family: source-code-pro, Menlo, Monaco, Consolas, &amp;quot;Courier New&amp;quot;, monospace; color: rgb(71, 101, 130); padding: 0.25rem 0.5rem; margin: 0px; font-size: 0.85em; background-color: rgba(27, 31, 35, 0.05); border-radius: 3px; font-style: normal; font-variant-ligatures: normal; font-variant-caps: normal; font-weight: 400; letter-spacing: normal; orphans: 2; text-align: start; text-indent: 0px; text-transform: none; widows: 2; word-spacing: 0px; -webkit-text-stroke-width: 0px; text-decoration-thickness: initial; text-decoration-style: initial; text-decoration-color: initial;&quot;&gt;$route&lt;/code&gt;&lt;span style=&quot;color: rgb(44, 62, 80); font-family: -apple-system, BlinkMacSystemFont, &amp;quot;Segoe UI&amp;quot;, Roboto, Oxygen, Ubuntu, Cantarell, &amp;quot;Fira Sans&amp;quot;, &amp;quot;Droid Sans&amp;quot;, &amp;quot;Helvetica Neue&amp;quot;, sans-serif; font-size: 16px; font-style: normal; font-variant-ligatures: normal; font-variant-caps: normal; font-weight: 400; letter-spacing: normal; orphans: 2; text-align: start; text-indent: 0px; text-transform: none; widows: 2; word-spacing: 0px; -webkit-text-stroke-width: 0px; background-color: rgb(255, 255, 255); text-decoration-thickness: initial; text-decoration-style: initial; text-decoration-color: initial; float: none; display: inline !important;&quot;&gt;&lt;span&gt;&amp;nbsp;&lt;/span&gt;对象：&lt;br&gt;&lt;/span&gt;或者使用 2.2 中引入的&amp;nbsp;&lt;code style=&quot;font-family: source-code-pro, Menlo, Monaco, Consolas, &amp;quot;Courier New&amp;quot;, monospace; color: rgb(71, 101, 130); padding: 0.25rem 0.5rem; margin: 0px; font-size: 0.85em; background-color: rgba(27, 31, 35, 0.05); border-radius: 3px;&quot;&gt;beforeRouteUpdate&lt;/code&gt;&lt;span style=&quot;color: rgb(44, 62, 80); font-family: -apple-system, BlinkMacSystemFont, &amp;quot;Segoe UI&amp;quot;, Roboto, Oxygen, Ubuntu, Cantarell, &amp;quot;Fira Sans&amp;quot;, &amp;quot;Droid Sans&amp;quot;, &amp;quot;Helvetica Neue&amp;quot;, sans-serif; font-size: 16px; background-color: rgb(255, 255, 255);&quot;&gt;&amp;nbsp;&lt;/span&gt;&lt;a style=&quot;text-decoration-line: none; color: rgb(62, 175, 124); font-family: -apple-system, BlinkMacSystemFont, &amp;quot;Segoe UI&amp;quot;, Roboto, Oxygen, Ubuntu, Cantarell, &amp;quot;Fira Sans&amp;quot;, &amp;quot;Droid Sans&amp;quot;, &amp;quot;Helvetica Neue&amp;quot;, sans-serif; font-size: 16px; background-color: rgb(255, 255, 255);&quot; class=&quot;&quot; href=&quot;https://v3.router.vuejs.org/zh/guide/advanced/navigation-guards.html&quot;&gt;导航守卫&lt;/a&gt;" style="text;whiteSpace=wrap;html=1;" vertex="1" parent="1">
          <mxGeometry x="20" y="-2190" width="560" height="80" as="geometry" />
        </mxCell>
        <mxCell id="BStEm_FRYmkBV9ERgJJY-2" value="&lt;span style=&quot;color: rgb(44, 62, 80); font-family: -apple-system, BlinkMacSystemFont, &amp;quot;Segoe UI&amp;quot;, Roboto, Oxygen, Ubuntu, Cantarell, &amp;quot;Fira Sans&amp;quot;, &amp;quot;Droid Sans&amp;quot;, &amp;quot;Helvetica Neue&amp;quot;, sans-serif; font-size: 16px; font-style: normal; font-variant-ligatures: normal; font-variant-caps: normal; font-weight: 400; letter-spacing: normal; orphans: 2; text-align: start; text-indent: 0px; text-transform: none; widows: 2; word-spacing: 0px; -webkit-text-stroke-width: 0px; background-color: rgb(255, 255, 255); text-decoration-thickness: initial; text-decoration-style: initial; text-decoration-color: initial; float: none; display: inline !important;&quot;&gt;当使用一个&lt;/span&gt;&lt;em style=&quot;color: rgb(44, 62, 80); font-family: -apple-system, BlinkMacSystemFont, &amp;quot;Segoe UI&amp;quot;, Roboto, Oxygen, Ubuntu, Cantarell, &amp;quot;Fira Sans&amp;quot;, &amp;quot;Droid Sans&amp;quot;, &amp;quot;Helvetica Neue&amp;quot;, sans-serif; font-size: 16px; font-variant-ligatures: normal; font-variant-caps: normal; font-weight: 400; letter-spacing: normal; orphans: 2; text-align: start; text-indent: 0px; text-transform: none; widows: 2; word-spacing: 0px; -webkit-text-stroke-width: 0px; background-color: rgb(255, 255, 255); text-decoration-thickness: initial; text-decoration-style: initial; text-decoration-color: initial;&quot;&gt;通配符&lt;/em&gt;&lt;span style=&quot;color: rgb(44, 62, 80); font-family: -apple-system, BlinkMacSystemFont, &amp;quot;Segoe UI&amp;quot;, Roboto, Oxygen, Ubuntu, Cantarell, &amp;quot;Fira Sans&amp;quot;, &amp;quot;Droid Sans&amp;quot;, &amp;quot;Helvetica Neue&amp;quot;, sans-serif; font-size: 16px; font-style: normal; font-variant-ligatures: normal; font-variant-caps: normal; font-weight: 400; letter-spacing: normal; orphans: 2; text-align: start; text-indent: 0px; text-transform: none; widows: 2; word-spacing: 0px; -webkit-text-stroke-width: 0px; background-color: rgb(255, 255, 255); text-decoration-thickness: initial; text-decoration-style: initial; text-decoration-color: initial; float: none; display: inline !important;&quot;&gt;时，&lt;/span&gt;&lt;code style=&quot;font-family: source-code-pro, Menlo, Monaco, Consolas, &amp;quot;Courier New&amp;quot;, monospace; color: rgb(71, 101, 130); padding: 0.25rem 0.5rem; margin: 0px; font-size: 0.85em; background-color: rgba(27, 31, 35, 0.05); border-radius: 3px; font-style: normal; font-variant-ligatures: normal; font-variant-caps: normal; font-weight: 400; letter-spacing: normal; orphans: 2; text-align: start; text-indent: 0px; text-transform: none; widows: 2; word-spacing: 0px; -webkit-text-stroke-width: 0px; text-decoration-thickness: initial; text-decoration-style: initial; text-decoration-color: initial;&quot;&gt;$route.params&lt;/code&gt;&lt;span style=&quot;color: rgb(44, 62, 80); font-family: -apple-system, BlinkMacSystemFont, &amp;quot;Segoe UI&amp;quot;, Roboto, Oxygen, Ubuntu, Cantarell, &amp;quot;Fira Sans&amp;quot;, &amp;quot;Droid Sans&amp;quot;, &amp;quot;Helvetica Neue&amp;quot;, sans-serif; font-size: 16px; font-style: normal; font-variant-ligatures: normal; font-variant-caps: normal; font-weight: 400; letter-spacing: normal; orphans: 2; text-align: start; text-indent: 0px; text-transform: none; widows: 2; word-spacing: 0px; -webkit-text-stroke-width: 0px; background-color: rgb(255, 255, 255); text-decoration-thickness: initial; text-decoration-style: initial; text-decoration-color: initial; float: none; display: inline !important;&quot;&gt;&lt;span&gt;&amp;nbsp;&lt;/span&gt;内会自动添加一个名为&lt;span&gt;&amp;nbsp;&lt;/span&gt;&lt;/span&gt;&lt;code style=&quot;font-family: source-code-pro, Menlo, Monaco, Consolas, &amp;quot;Courier New&amp;quot;, monospace; color: rgb(71, 101, 130); padding: 0.25rem 0.5rem; margin: 0px; font-size: 0.85em; background-color: rgba(27, 31, 35, 0.05); border-radius: 3px; font-style: normal; font-variant-ligatures: normal; font-variant-caps: normal; font-weight: 400; letter-spacing: normal; orphans: 2; text-align: start; text-indent: 0px; text-transform: none; widows: 2; word-spacing: 0px; -webkit-text-stroke-width: 0px; text-decoration-thickness: initial; text-decoration-style: initial; text-decoration-color: initial;&quot;&gt;pathMatch&lt;/code&gt;&lt;span style=&quot;color: rgb(44, 62, 80); font-family: -apple-system, BlinkMacSystemFont, &amp;quot;Segoe UI&amp;quot;, Roboto, Oxygen, Ubuntu, Cantarell, &amp;quot;Fira Sans&amp;quot;, &amp;quot;Droid Sans&amp;quot;, &amp;quot;Helvetica Neue&amp;quot;, sans-serif; font-size: 16px; font-style: normal; font-variant-ligatures: normal; font-variant-caps: normal; font-weight: 400; letter-spacing: normal; orphans: 2; text-align: start; text-indent: 0px; text-transform: none; widows: 2; word-spacing: 0px; -webkit-text-stroke-width: 0px; background-color: rgb(255, 255, 255); text-decoration-thickness: initial; text-decoration-style: initial; text-decoration-color: initial; float: none; display: inline !important;&quot;&gt;&lt;span&gt;&amp;nbsp;&lt;/span&gt;参数。它包含了 URL 通过&lt;/span&gt;&lt;em style=&quot;color: rgb(44, 62, 80); font-family: -apple-system, BlinkMacSystemFont, &amp;quot;Segoe UI&amp;quot;, Roboto, Oxygen, Ubuntu, Cantarell, &amp;quot;Fira Sans&amp;quot;, &amp;quot;Droid Sans&amp;quot;, &amp;quot;Helvetica Neue&amp;quot;, sans-serif; font-size: 16px; font-variant-ligatures: normal; font-variant-caps: normal; font-weight: 400; letter-spacing: normal; orphans: 2; text-align: start; text-indent: 0px; text-transform: none; widows: 2; word-spacing: 0px; -webkit-text-stroke-width: 0px; background-color: rgb(255, 255, 255); text-decoration-thickness: initial; text-decoration-style: initial; text-decoration-color: initial;&quot;&gt;通配符&lt;/em&gt;&lt;span style=&quot;color: rgb(44, 62, 80); font-family: -apple-system, BlinkMacSystemFont, &amp;quot;Segoe UI&amp;quot;, Roboto, Oxygen, Ubuntu, Cantarell, &amp;quot;Fira Sans&amp;quot;, &amp;quot;Droid Sans&amp;quot;, &amp;quot;Helvetica Neue&amp;quot;, sans-serif; font-size: 16px; font-style: normal; font-variant-ligatures: normal; font-variant-caps: normal; font-weight: 400; letter-spacing: normal; orphans: 2; text-align: start; text-indent: 0px; text-transform: none; widows: 2; word-spacing: 0px; -webkit-text-stroke-width: 0px; background-color: rgb(255, 255, 255); text-decoration-thickness: initial; text-decoration-style: initial; text-decoration-color: initial; float: none; display: inline !important;&quot;&gt;被匹配的部分：&lt;/span&gt;" style="text;whiteSpace=wrap;html=1;" vertex="1" parent="1">
          <mxGeometry x="20" y="-2100" width="560" height="60" as="geometry" />
        </mxCell>
        <mxCell id="BStEm_FRYmkBV9ERgJJY-4" value="&lt;span style=&quot;color: rgb(44, 62, 80); font-family: -apple-system, BlinkMacSystemFont, &amp;quot;Segoe UI&amp;quot;, Roboto, Oxygen, Ubuntu, Cantarell, &amp;quot;Fira Sans&amp;quot;, &amp;quot;Droid Sans&amp;quot;, &amp;quot;Helvetica Neue&amp;quot;, sans-serif; font-style: normal; font-variant-ligatures: normal; font-variant-caps: normal; letter-spacing: normal; orphans: 2; text-align: start; text-indent: 0px; text-transform: none; widows: 2; word-spacing: 0px; -webkit-text-stroke-width: 0px; background-color: rgb(255, 255, 255); text-decoration-thickness: initial; text-decoration-style: initial; text-decoration-color: initial; float: none; display: inline !important;&quot;&gt;&lt;span style=&quot;font-size: 18px;&quot;&gt;&lt;b&gt;嵌套路由&lt;/b&gt;&lt;/span&gt;&lt;br&gt;&lt;/span&gt;" style="text;whiteSpace=wrap;html=1;" vertex="1" parent="1">
          <mxGeometry x="10" y="-2040" width="560" height="40" as="geometry" />
        </mxCell>
      </root>
    </mxGraphModel>
  </diagram>
  <diagram id="lsIaieYpcl7bw8599dq1" name="第 4 页">
    <mxGraphModel dx="864" dy="516" grid="1" gridSize="10" guides="1" tooltips="1" connect="1" arrows="1" fold="1" page="1" pageScale="1" pageWidth="827" pageHeight="1169" math="0" shadow="0">
      <root>
        <mxCell id="0" />
        <mxCell id="1" parent="0" />
        <mxCell id="kq_9TpLTY9S3EdoZsubO-1" value="install" style="rounded=0;whiteSpace=wrap;html=1;" vertex="1" parent="1">
          <mxGeometry x="10" y="10" width="120" height="60" as="geometry" />
        </mxCell>
        <mxCell id="kq_9TpLTY9S3EdoZsubO-3" value="&lt;font color=&quot;#0000ff&quot;&gt;通过beforeCreate实现各个组件的_router&lt;br&gt;, _route属性添加。以及_routerRoot&lt;/font&gt;" style="text;html=1;align=center;verticalAlign=middle;resizable=0;points=[];autosize=1;strokeColor=none;fillColor=none;" vertex="1" parent="1">
          <mxGeometry x="170" y="20" width="240" height="40" as="geometry" />
        </mxCell>
        <mxCell id="kq_9TpLTY9S3EdoZsubO-4" value="app._router.init(app)" style="swimlane;fontStyle=0;childLayout=stackLayout;horizontal=1;startSize=30;horizontalStack=0;resizeParent=1;resizeParentMax=0;resizeLast=0;collapsible=1;marginBottom=0;whiteSpace=wrap;html=1;" vertex="1" parent="1">
          <mxGeometry x="10" y="100" width="140" height="120" as="geometry" />
        </mxCell>
        <mxCell id="kq_9TpLTY9S3EdoZsubO-5" value="Item 1" style="text;strokeColor=none;fillColor=none;align=left;verticalAlign=middle;spacingLeft=4;spacingRight=4;overflow=hidden;points=[[0,0.5],[1,0.5]];portConstraint=eastwest;rotatable=0;whiteSpace=wrap;html=1;" vertex="1" parent="kq_9TpLTY9S3EdoZsubO-4">
          <mxGeometry y="30" width="140" height="30" as="geometry" />
        </mxCell>
        <mxCell id="kq_9TpLTY9S3EdoZsubO-6" value="Item 2" style="text;strokeColor=none;fillColor=none;align=left;verticalAlign=middle;spacingLeft=4;spacingRight=4;overflow=hidden;points=[[0,0.5],[1,0.5]];portConstraint=eastwest;rotatable=0;whiteSpace=wrap;html=1;" vertex="1" parent="kq_9TpLTY9S3EdoZsubO-4">
          <mxGeometry y="60" width="140" height="30" as="geometry" />
        </mxCell>
        <mxCell id="kq_9TpLTY9S3EdoZsubO-7" value="Item 3" style="text;strokeColor=none;fillColor=none;align=left;verticalAlign=middle;spacingLeft=4;spacingRight=4;overflow=hidden;points=[[0,0.5],[1,0.5]];portConstraint=eastwest;rotatable=0;whiteSpace=wrap;html=1;" vertex="1" parent="kq_9TpLTY9S3EdoZsubO-4">
          <mxGeometry y="90" width="140" height="30" as="geometry" />
        </mxCell>
      </root>
    </mxGraphModel>
  </diagram>
</mxfile>
